<?xml version="1.0" encoding="UTF-8" standalone="no"?>
<svg width="22px" height="22px" viewBox="0 0 22 22" version="1.1" xmlns="http://www.w3.org/2000/svg" xmlns:xlink="http://www.w3.org/1999/xlink">
    <!-- Generator: Sketch 3.6.1 (26313) - http://www.bohemiancoding.com/sketch -->
    <title>icon-support</title>
    <desc>Created with Sketch.</desc>
    <defs></defs>
    <g id="Page-1" stroke="none" stroke-width="1" fill="none" fill-rule="evenodd">
        <path d="M21.4847838,9.52198649 C21.4313446,9.46862162 21.3811014,9.41941892 21.3223851,9.37378378 C20.6243311,4.91558784 17.1057432,1.3939527 12.6473986,0.696121622 C12.614473,0.653533784 12.5813986,0.612060811 12.5444595,0.572445946 C12.2053176,0.208628378 11.7239189,0 11.2209662,0 L10.8286081,0 C10.3255811,0 9.84262162,0.208628378 9.50355405,0.572445946 C9.46661486,0.612060811 9.43197973,0.653533784 9.39905405,0.696121622 C4.94070946,1.39402703 1.41907432,4.91558784 0.72102027,9.37370946 C0.662304054,9.41941892 0.593405405,9.4685473 0.539966216,9.52198649 C0.199709459,9.86202027 0,10.3172568 0,10.8037838 L0,11.1961419 C0,11.6826689 0.199709459,12.1379054 0.539891892,12.4779392 C0.593331081,12.5313784 0.656135135,12.5805068 0.714851351,12.6262162 C1.41290541,17.0843378 4.93766216,20.6058986 9.39585811,21.3038041 C9.42878378,21.3463919 9.46497973,21.3878649 9.50191892,21.4274797 C9.84106081,21.7912973 10.3255068,21.9999257 10.8285338,21.9999257 L11.2208919,21.9999257 C11.7239189,21.9999257 12.2068784,21.7912973 12.5459459,21.4274797 C12.5828851,21.3878649 12.6175203,21.3463919 12.6504459,21.3038041 C17.1087162,20.605973 20.6304257,17.0844122 21.3284797,12.6262162 C21.3871959,12.5805068 21.4313446,12.5313784 21.4847838,12.4779392 C21.8249662,12.1379054 21.9999257,11.6826689 21.9999257,11.1961419 L21.9999257,10.8037838 C22,10.3172568 21.8250405,9.86202027 21.4847838,9.52198649 L21.4847838,9.52198649 Z M20.8851351,10.8037838 L20.8851351,11.1961419 C20.8851351,11.5874595 20.591777,11.8892162 20.2079662,11.8892162 C20.1907973,11.8892162 20.1796486,11.8886216 20.1622568,11.8874324 L18.5832365,11.7766149 C18.1754932,11.748 17.8433378,11.398527 17.8433378,11 C17.8433378,10.601473 18.1777973,10.252 18.5855405,10.2233851 L20.1680541,10.1125676 C20.1854459,10.1113041 20.1905743,10.1107838 20.2077432,10.1107838 C20.5915541,10.1107095 20.8851351,10.4125405 20.8851351,10.8037838 L20.8851351,10.8037838 Z M11.9188716,1.85632432 L11.8047095,3.43846622 C11.7760946,3.84620946 11.4249865,4.17992568 11.0263851,4.17992568 C10.6278581,4.17992568 10.2774932,3.84628378 10.2488784,3.43846622 L10.1376892,1.85632432 C10.1090743,1.44858108 10.41975,1.11486486 10.8285338,1.11486486 L11.2342703,1.11486486 C11.6430541,1.11486486 11.9474865,1.44850676 11.9188716,1.85632432 L11.9188716,1.85632432 Z M4.20460135,11 C4.20460135,11.398527 3.87095946,11.748 3.46314189,11.7766149 L1.881,11.8874324 C1.86360811,11.8886959 1.83387838,11.8892162 1.81670946,11.8892162 C1.43289865,11.8892162 1.11479054,11.5873851 1.11479054,11.1961419 L1.11479054,10.8037838 C1.11479054,10.4124662 1.43297297,10.1107095 1.81670946,10.1107095 C1.8339527,10.1107095 1.85736486,10.1113041 1.87483108,10.1124932 L3.46009459,10.2233108 C3.86783784,10.252 4.20460135,10.601473 4.20460135,11 L4.20460135,11 Z M10.8285338,20.8851351 C10.41975,20.8851351 10.1086284,20.5514932 10.1372432,20.1436757 L10.2480608,18.5615338 C10.2766757,18.1537905 10.6261486,17.8200743 11.0246757,17.8200743 C11.4232027,17.8200743 11.7726757,18.1537162 11.8012905,18.5615338 L11.9121081,20.1436757 C11.940723,20.5514189 11.6296014,20.8851351 11.2208176,20.8851351 L10.8285338,20.8851351 L10.8285338,20.8851351 Z M11.0248243,15.4594595 C8.5659527,15.4594595 6.56536486,13.4588716 6.56536486,11 C6.56536486,8.54112838 8.5659527,6.54054054 11.0248243,6.54054054 C13.4837703,6.54054054 15.4842838,8.54112838 15.4842838,11 C15.4842838,13.4588716 13.4837703,15.4594595 11.0248243,15.4594595 L11.0248243,15.4594595 Z" id="icon-support" fill="#292F37"></path>
    </g>
</svg>