<?xml version="1.0" encoding="UTF-8" standalone="no"?>
<svg width="17px" height="25px" viewBox="0 0 17 25" version="1.1" xmlns="http://www.w3.org/2000/svg" xmlns:xlink="http://www.w3.org/1999/xlink">
    <!-- Generator: Sketch 3.6.1 (26313) - http://www.bohemiancoding.com/sketch -->
    <title>icon-guides</title>
    <desc>Created with Sketch.</desc>
    <defs></defs>
    <g id="Page-1" stroke="none" stroke-width="1" fill="none" fill-rule="evenodd">
        <g id="icon-guides" fill="#292F37">
            <path d="M15.6879091,5.02195455 L13.9044545,5.02195455 L13.9044545,4.55831818 C13.9044545,3.64572727 13.1649545,2.90622727 12.2531364,2.90622727 L11.4641818,2.90622727 C11.4417727,1.29431818 10.1289091,0 8.517,0 C6.90509091,0 5.59222727,1.29431818 5.56904545,2.90622727 L4.78009091,2.90622727 C3.86827273,2.90622727 3.12877273,3.64572727 3.12877273,4.55831818 L3.12877273,5.02195455 L1.34609091,5.02195455 C0.754954545,5.02195455 0.258090909,5.4995 0.258090909,6.09063636 L0.258090909,23.6933636 C0.258090909,24.2845 0.754954545,24.7628182 1.34609091,24.7628182 L15.6886818,24.7628182 C16.2805909,24.7628182 16.7766818,24.2845 16.7766818,23.6933636 L16.7766818,6.08986364 C16.7759091,5.4995 16.2790455,5.02195455 15.6879091,5.02195455 L15.6879091,5.02195455 Z M8.517,1.54468182 C9.27736364,1.54468182 9.89863636,2.15127273 9.92104545,2.90622727 L7.11295455,2.90622727 C7.13613636,2.15127273 7.75663636,1.54468182 8.517,1.54468182 L8.517,1.54468182 Z M15.4159091,23.4522727 L1.61809091,23.4522727 L1.61809091,6.33018182 L3.12877273,6.33018182 L3.12877273,7.53872727 L13.9044545,7.53872727 L13.9044545,6.33018182 L15.4151364,6.33018182 L15.4151364,23.4522727 L15.4159091,23.4522727 Z" id="Shape"></path>
            <path d="M13.5041818,9.80590909 L10.0307727,9.80590909 C9.48445455,9.80590909 9.03936364,10.2131364 9.03936364,10.761 C9.03936364,11.3088636 9.48445455,11.7176364 10.0307727,11.7176364 L13.5041818,11.7176364 C14.0512727,11.7176364 14.4948182,11.3088636 14.4948182,10.761 C14.4948182,10.2131364 14.0512727,9.80590909 13.5041818,9.80590909 L13.5041818,9.80590909 Z" id="Shape"></path>
            <path d="M5.00804545,10.7130909 L4.26236364,10.132 C4.07845455,9.9875 3.81418182,10.0114545 3.65809091,10.1845455 L3.22845455,10.6605455 C3.14654545,10.7517273 3.10559091,10.8730455 3.11563636,10.9966818 C3.12645455,11.1195455 3.18672727,11.2323636 3.28331818,11.3080909 L4.58381818,12.3342727 C4.89754545,12.5823182 5.34727273,12.5560455 5.63009091,12.2732273 L7.90886364,9.99445455 C8.01936364,9.88395455 8.08118182,9.73481818 8.08118182,9.57872727 C8.08118182,9.42263636 8.01936364,9.27272727 7.90886364,9.163 L7.64845455,8.90259091 C7.41895455,8.67309091 7.04727273,8.67309091 6.81777273,8.90259091 L5.00804545,10.7130909 L5.00804545,10.7130909 Z" id="Shape"></path>
            <path d="M13.5041818,14.2367273 L10.0307727,14.2367273 C9.48445455,14.2367273 9.03936364,14.6455 9.03936364,15.1933636 C9.03936364,15.7396818 9.48445455,16.15 10.0307727,16.15 L13.5041818,16.15 C14.0512727,16.15 14.4948182,15.7396818 14.4948182,15.1933636 C14.4948182,14.6462727 14.0512727,14.2367273 13.5041818,14.2367273 L13.5041818,14.2367273 Z" id="Shape"></path>
            <path d="M5.00804545,15.1439091 L4.26236364,14.5628182 C4.07845455,14.4190909 3.81418182,14.4438182 3.65809091,14.6161364 L3.22845455,15.0921364 C3.14654545,15.1825455 3.10559091,15.3046364 3.11563636,15.4282727 C3.12645455,15.5503636 3.18672727,15.6647273 3.28331818,15.7396818 L4.58381818,16.7658636 C4.89831818,17.0131364 5.34804545,16.9860909 5.63086364,16.7040455 L7.91040909,14.4252727 C8.02090909,14.3147727 8.08272727,14.1656364 8.08272727,14.0095455 C8.08272727,13.855 8.02090909,13.7035455 7.91040909,13.5938182 L7.65,13.3334091 C7.4205,13.1039091 7.04881818,13.1039091 6.81931818,13.3334091 L5.00804545,15.1439091 L5.00804545,15.1439091 Z" id="Shape"></path>
            <path d="M13.5041818,18.5168636 L10.0307727,18.5168636 C9.48445455,18.5168636 9.03936364,18.9256364 9.03936364,19.4735 C9.03936364,20.0213636 9.48445455,20.4301364 10.0307727,20.4301364 L13.5041818,20.4301364 C14.0512727,20.4301364 14.4948182,20.0213636 14.4948182,19.4735 C14.4948182,18.9256364 14.0512727,18.5168636 13.5041818,18.5168636 L13.5041818,18.5168636 Z" id="Shape"></path>
            <path d="M5.00804545,19.4240455 L4.26236364,18.8429545 C4.07845455,18.6976818 3.81418182,18.7224091 3.65809091,18.8955 L3.22845455,19.3707273 C3.14654545,19.4626818 3.10481818,19.5832273 3.11563636,19.7076364 C3.12568182,19.8305 3.18672727,19.9433182 3.28331818,20.0182727 L4.58381818,21.046 C4.89831818,21.2932727 5.34804545,21.2662273 5.63086364,20.9841818 L7.91040909,18.7046364 C8.13990909,18.4743636 8.13990909,18.105 7.91040909,17.8739545 L7.65,17.6135455 C7.5395,17.5022727 7.39036364,17.4404545 7.23427273,17.4404545 C7.07818182,17.4404545 6.92904545,17.5022727 6.81854545,17.6135455 L5.00804545,19.4240455 L5.00804545,19.4240455 Z" id="Shape"></path>
        </g>
    </g>
</svg>