<?xml version="1.0" encoding="UTF-8" standalone="no"?>
<svg width="35px" height="32px" viewBox="0 0 35 32" version="1.1" xmlns="http://www.w3.org/2000/svg" xmlns:xlink="http://www.w3.org/1999/xlink">
    <!-- Generator: Sketch 3.6.1 (26313) - http://www.bohemiancoding.com/sketch -->
    <title>icon</title>
    <desc>Created with Sketch.</desc>
    <defs></defs>
    <g id="Blocks" stroke="none" stroke-width="1" fill="none" fill-rule="evenodd">
        <g id="Rocket-Launch-Copy" transform="translate(-984.000000, -605.000000)">
            <g id="icon" transform="translate(984.000000, 605.000000)">
                <path d="M1.73660714,31.1829132 C1.73660714,31.1829132 3.00720489,29.9146066 4.56531811,28.3593029 L15.3442622,17.599795 C15.7363929,17.2083713 16.3858489,17.2033274 16.7889336,17.5829451 L31.1947709,31.1500967" id="Path-156" fill="#F2F2F2"></path>
                <path d="M27.4739877,11.6644345 L27.4739877,15 L34.4739877,9 L27.4739877,3 L27.4739877,11.6644345 C27.4739878,11.6644345 27.4739879,11.6644345 27.4739879,11.6644345 L27.4739877,5.66443452 C22.3185596,7.88274317 20.7461227,9.02730532 19.2877607,10.5323544 C18.8883978,10.9445023 17.1241364,13.1453476 17.0682667,13.5312267 C16.9146666,14.5921082 17.0682667,15.3108378 17.0682667,15.3108378 C17.0682667,15.3108378 18.0648512,14.4014951 19.2877607,13.5312267 C19.8884348,13.1037644 20.6049267,12.7933256 21.1654781,12.4798876 C21.9661731,12.0321707 23.2383154,11.7627296 24.4276416,11.6644345 C26.0230942,11.532574 27.4734257,11.6643834 27.4739877,11.6644345 Z" id="Combined-Shape" fill="#DD4E00"></path>
                <path d="M33.0200342,13.8654436 L24.2441884,20.4085042 L33.0200342,28.9728839 L33.0200342,13.8654436 Z" id="Path-158" fill="#F2F2F2"></path>
                <path d="M0.247321796,28.3463328 L8.48995903,20.6278177 L1.97629507,14.6293481 L15.7855417,3.6047914 L19.591932,6.9804027 L21.8123274,5.28867334 L16.2084741,0.00201920818 L0.247321796,12.4120801 L0.247321796,28.3463328 Z" id="Path-157" fill="#F2F2F2"></path>
            </g>
        </g>
    </g>
</svg>