<?xml version="1.0" encoding="UTF-8" standalone="no"?>
<svg width="39px" height="31px" viewBox="0 0 39 31" version="1.1" xmlns="http://www.w3.org/2000/svg" xmlns:xlink="http://www.w3.org/1999/xlink">
    <!-- Generator: Sketch 3.6.1 (26313) - http://www.bohemiancoding.com/sketch -->
    <title>icon</title>
    <desc>Created with Sketch.</desc>
    <defs></defs>
    <g id="Blocks" stroke="none" stroke-width="1" fill="none" fill-rule="evenodd">
        <g id="Rocket-Launch-Copy" transform="translate(-538.000000, -370.000000)">
            <g id="Group-4" transform="translate(107.000000, 370.000000)">
                <g id="testimonials" transform="translate(431.000000, 0.000000)">
                    <g id="icon">
                        <path d="M10.8166678,18.8879338 L0.0141601562,18.8879338 L0.0141601562,11.29707 C0.0141601562,8.5024097 0.651543124,6.29692706 1.92632818,4.68055594 C3.20111324,3.06418483 5.38642627,1.63666353 8.48233284,0.397949219 L10.8166678,4.4313037 C8.91276807,5.24704239 7.59661363,6.05899234 6.86816503,6.8671779 C6.13971642,7.67536345 5.73410908,8.63082083 5.65133083,9.73357869 L10.8166678,9.73357869 L10.8166678,18.8879338 Z M23.4071768,18.8879338 L12.6046691,18.8879338 L12.6046691,11.29707 C12.6046691,8.5024097 13.2420521,6.29692706 14.5168371,4.68055594 C15.7916222,3.06418483 17.9769352,1.63666353 21.0728418,0.397949219 L23.4071768,4.4313037 C21.503277,5.24704239 20.1871226,6.05899234 19.458674,6.8671779 C18.7302254,7.67536345 18.324618,8.63082083 18.2418398,9.73357869 L23.4071768,9.73357869 L23.4071768,18.8879338 Z" id="“-”-copy" fill="#FFFFFF"></path>
                        <path d="M15.6012268,11.9079646 L26.4037345,11.9079646 L26.4037345,19.4988284 C26.4037345,22.2934887 25.7663515,24.5027479 24.4915664,26.1266721 C23.2167814,27.7505964 21.0397461,29.1743412 17.9603951,30.3979492 L15.6012268,26.3645947 C17.5216822,25.548856 18.8419755,24.7369061 19.5621463,23.9287205 C20.2823171,23.120535 20.6837855,22.1650776 20.7665638,21.0623197 L15.6012268,21.0623197 L15.6012268,11.9079646 Z M28.1917357,11.9079646 L38.9942434,11.9079646 L38.9942434,19.4988284 C38.9942434,22.2934887 38.3568605,24.5027479 37.0820754,26.1266721 C35.8072903,27.7505964 33.630255,29.1743412 30.5509041,30.3979492 L28.1917357,26.3645947 C30.1121912,25.548856 31.4324844,24.7369061 32.1526552,23.9287205 C32.872826,23.120535 33.2742945,22.1650776 33.3570727,21.0623197 L28.1917357,21.0623197 L28.1917357,11.9079646 Z" id="“-”-copy-2" fill="#DD4E02"></path>
                    </g>
                </g>
            </g>
        </g>
    </g>
</svg>