<svg width="40px" height="31px" viewBox="0 0 40 31" version="1.1" xmlns="http://www.w3.org/2000/svg" xmlns:xlink="http://www.w3.org/1999/xlink">
    <g id="Blocks" stroke="none" stroke-width="1" fill="none" fill-rule="evenodd">
        <g id="Rocket-Launch-Copy" transform="translate(-107.000000, -379.000000)">
            <g id="Group-4" transform="translate(107.000000, 370.000000)">
                <g id="contact" transform="translate(0.000000, 6.000000)">
                    <g id="icon" transform="translate(0.000000, 3.000000)">
                        <path d="M22.7937778,19.8380107 C22.5079596,19.5442567 22.1206465,19.3800561 21.7153131,19.3800561 C21.3105455,19.3800561 20.9232323,19.5443396 20.6368485,19.8380107 L18.6248889,21.9031578 L8.84985859,11.8751551 L10.8617374,9.8115 C11.4577778,9.20086631 11.4577778,8.21052406 10.8617374,7.5997246 L4.96735354,1.55356417 C4.66957576,1.24828877 4.27967677,1.09486364 3.88945455,1.09486364 C3.49890909,1.09486364 3.10868687,1.24837166 2.81123232,1.55356417 L0.799111111,3.61871123 C-1.74440404,6.22909358 1.98521212,14.2846176 9.13163636,21.6141283 C14.7549899,27.3816203 20.817697,30.9802727 24.384404,30.9802727 C25.3498182,30.9802727 26.1326061,30.7164412 26.6742626,30.1602647 L26.6707879,30.1562032 L28.6881616,28.0964439 C29.2836364,27.4851471 29.2836364,26.4954679 28.6881616,25.8840882 L22.7937778,19.8380107 L22.7937778,19.8380107 Z" id="XMLID_5_" fill="#DD4E00"></path>
                        <path d="M38.3867475,0.0712005348 L11.2452525,0.0712005348 C10.3711515,0.0712005348 9.66254545,0.798042781 9.66254545,1.69463904 L9.66254545,2.42123262 L12.7855354,5.6245107 C13.5881212,6.44725401 14.0306263,7.54186898 14.0306263,8.70528075 C14.0306263,9.86935561 13.5880404,10.9639706 12.786101,11.7852219 L12.6983434,11.8751551 L14.7994343,14.0304011 L19.1006061,10.3689198 L12.2772525,4.55923797 C11.8431515,4.18989037 11.7835152,3.53010428 12.1435152,3.08508021 C12.5037576,2.63997326 13.1475556,2.57921658 13.5808485,2.94806684 L24.8164848,12.5145508 L36.051798,2.94806684 C36.4856566,2.57929947 37.1294545,2.63997326 37.4891313,3.08508021 C37.8491313,3.53010428 37.7894949,4.18989037 37.3553939,4.55923797 L30.5319596,10.3689198 L37.3434343,16.1912005 C37.7759192,16.5607968 37.8349091,17.219754 37.4754747,17.664115 L37.4754747,17.664115 C37.1149899,18.1096364 36.4703838,18.170393 36.0366869,17.7998021 L28.9341414,11.7294385 L25.4681212,14.6806551 C25.2793535,14.8413743 25.047596,14.9218583 24.816404,14.9218583 C24.5849697,14.9218583 24.3532121,14.8413743 24.1645253,14.6806551 L20.6987475,11.7294385 L16.2487273,15.5175722 L17.6779798,16.983607 L18.6241616,17.954139 L18.7125657,17.8642059 C19.0807273,17.4865695 19.5086869,17.197623 19.9690505,16.983607 C20.5119192,16.7314626 21.1013333,16.5882326 21.7153939,16.5882326 C22.3300202,16.5882326 22.9200808,16.7314626 23.4621414,16.983607 C23.9233131,17.197623 24.3512727,17.4865695 24.7179798,17.8642059 L27.1971717,20.4071176 L38.3869091,20.4071176 C39.2610101,20.4071176 39.9696162,19.6801925 39.9696162,18.7836791 L39.9696162,1.69463904 C39.9694545,0.798042781 39.2608485,0.0712005348 38.3867475,0.0712005348 L38.3867475,0.0712005348 Z" id="XMLID_4_" fill="#FFFFFF"></path>
                    </g>
                </g>
            </g>
        </g>
    </g>
</svg>
