<?xml version="1.0" encoding="UTF-8" standalone="no"?>
<svg width="32px" height="31px" viewBox="0 0 32 31" version="1.1" xmlns="http://www.w3.org/2000/svg" xmlns:xlink="http://www.w3.org/1999/xlink">
    <!-- Generator: Sketch 3.6.1 (26313) - http://www.bohemiancoding.com/sketch -->
    <title>icon</title>
    <desc>Created with Sketch.</desc>
    <defs></defs>
    <g id="Blocks" stroke="none" stroke-width="1" fill="none" fill-rule="evenodd">
        <g id="Rocket-Launch-Copy" transform="translate(-543.000000, -595.000000)">
            <g id="Group-4" transform="translate(107.000000, 370.000000)">
                <g id="gallery" transform="translate(436.000000, 220.000000)">
                    <g id="icon" transform="translate(0.000000, 5.000000)">
                        <g id="Capa_1">
                            <g id="Group">
                                <path d="M29.1186345,8.80343221 L24.0365629,8.80343221 L24.0365629,3.39389496 C24.0365629,1.77397528 22.7584205,0.460810811 21.1558906,0.460810811 L10.9598631,0.460810811 C9.35664002,0.460810811 8.06116923,1.77467563 8.06116923,3.39389496 L8.06116923,8.80343221 L2.92018108,8.80343221 C1.316958,8.80343221 0,10.139008 0,11.7596281 L0,27.6849863 C0,29.3042057 1.316958,30.622973 2.92018108,30.622973 L29.1186345,30.622973 C30.7211645,30.622973 32,29.3042057 32,27.6849863 L32,11.7596281 C32,10.139008 30.7211645,8.80343221 29.1186345,8.80343221 L29.1186345,8.80343221 Z M12.9262893,3.27483472 L19.1887712,3.27483472 C20.1494574,3.27483472 20.9271558,4.05572985 20.9271558,5.02712138 C20.9271558,5.99781255 20.1494574,6.77940804 19.1887712,6.77940804 L12.9262893,6.77940804 C11.9656031,6.77940804 11.1872116,5.99781255 11.1872116,5.02712138 C11.1872116,4.05713056 11.9662963,3.27483472 12.9262893,3.27483472 L12.9262893,3.27483472 Z M4.61628436,12.3605321 C4.61628436,11.3604261 5.41824247,10.5508164 6.40734724,10.5508164 C7.39714515,10.5508164 8.19841012,11.3604261 8.19841012,12.3605321 C8.19841012,13.3606382 7.39645201,14.1702478 6.40734724,14.1702478 C5.41824247,14.1702478 4.61628436,13.3599378 4.61628436,12.3605321 L4.61628436,12.3605321 Z M15.9934152,28.0848887 C11.3743583,28.0848887 7.63003877,24.3015743 7.63003877,19.6337124 C7.63003877,14.9665508 11.3743583,11.1846371 15.9934152,11.1846371 C20.6124721,11.1846371 24.3567916,14.9665508 24.3567916,19.6337124 C24.3574848,24.300874 20.6124721,28.0848887 15.9934152,28.0848887 L15.9934152,28.0848887 Z" id="Shape" fill="#FFFFFF"></path>
                                <path d="M16.0623158,16.0818288 C14.7301053,14.661345 12.5785263,14.6640628 11.2505263,16.0926999 C9.92,17.5240547 9.92,19.8468356 11.2505263,21.2800023 C11.3153684,21.3488523 14.4749474,24.7333723 15.6378947,25.9790134 C15.8728421,26.2290476 16.2517895,26.2281416 16.4858947,25.9790134 C17.6496842,24.7333723 20.8092632,21.3506641 20.8732632,21.2800023 C22.2046316,19.8468356 22.2046316,17.5240547 20.8732632,16.0926999 C19.5461053,14.6631569 17.3945263,14.6595332 16.0623158,16.0818288 L16.0623158,16.0818288 Z" id="Shape" fill="#DD4E00"></path>
                            </g>
                        </g>
                    </g>
                </g>
            </g>
        </g>
    </g>
</svg>