<?xml version="1.0" encoding="UTF-8" standalone="no"?>
<svg width="33px" height="34px" viewBox="0 0 33 34" version="1.1" xmlns="http://www.w3.org/2000/svg" xmlns:xlink="http://www.w3.org/1999/xlink">
    <!-- Generator: Sketch 3.6.1 (26313) - http://www.bohemiancoding.com/sketch -->
    <title>icon</title>
    <desc>Created with Sketch.</desc>
    <defs></defs>
    <g id="Blocks" stroke="none" stroke-width="1" fill="none" fill-rule="evenodd">
        <g id="Rocket-Launch-Copy" transform="translate(-984.000000, -379.000000)">
            <g id="Group-4" transform="translate(107.000000, 370.000000)">
                <g id="toolkit" transform="translate(877.000000, 2.000000)">
                    <g id="icon" transform="translate(0.000000, 7.000000)">
                        <path d="M31.6620968,9.06160944 C31.8355609,9.17994322 32.1587632,9.326989 32.2141113,9.41113281 C32.4480867,9.76683713 32.9641113,10.9919166 32.9641113,11.0361328 C32.9641113,15.1611328 31.1754593,16.3888304 29.8510742,17.5361328 C27.8815334,19.2423274 25.3621159,20 23.5,20 C18.2532949,20 14,15.5228475 14,10 C14,4.4771525 18.2532949,0 23.5,0 C25.3790152,0 25.5563965,0.670166016 25.5563965,0.670166016 C25.6945441,0.783377363 25.6258919,0.920371216 25.876709,1.16381836 C25.9247022,1.21040135 25.9548389,1.2502693 25.9702632,1.28436735 C25.8751763,1.3459617 25.7804387,1.40938169 25.6861224,1.47461698 C25.5119257,1.48844555 25.304059,1.47631836 25.189209,1.47631836 C25.189209,1.47631836 25.2591922,1.55240315 25.3850007,1.69017147 C25.141541,1.8704374 24.9014702,2.06298003 24.6660635,2.267616 C21.51636,5.00561144 20.3943336,8.87173225 22.1599474,10.9028385 C23.9255611,12.9339448 27.910213,12.3608979 31.0599164,9.62290244 C31.2697251,9.44051853 31.4705366,9.25312893 31.6620968,9.06160944 Z" id="Combined-Shape" fill="#F2F2F2"></path>
                        <path d="M15.1899414,11.8610839 C15.1799944,11.8719352 12.5151171,14.2876856 12.505127,14.298584 C7.92619998,19.2937771 0.757080078,26.861084 0.757080078,26.861084 C0.757080078,26.861084 -1.43041992,34.986084 7.19458008,33.673584 L21.5043945,18.861084 L17.2570801,14.673584 L15.9445801,13.173584 C15.9445801,13.173584 15.2041866,11.8455437 15.1899414,11.8610839 Z" id="Path-161" fill="#F2F2F2"></path>
                        <path d="M2.55036058,3.56146635 L0.047355758,6.17685092 L1.93043269,9.83838942 L3.70889423,9.94300481 L19.0873558,25.9491587 L19.2965865,28.5690385 L24.008774,33.7998077 L26.9380048,33.7998077 L28.8210817,32.7536538 L29.6580048,31.5983894 L29.5533894,30.1292788 L28.611851,28.4554327 L27.0426202,26.7815865 L24.7410817,24.2708173 L23.6949279,23.4338942 L22.2303125,23.7477404 L21.4980048,23.1200481 L6.32877404,7.53235577 L6.43338942,5.75389423 L2.55036058,3.56146635 Z" id="Path-162" fill="#E34D01"></path>
                    </g>
                </g>
            </g>
        </g>
    </g>
</svg>