<?xml version="1.0" encoding="UTF-8" standalone="no"?>
<svg width="20px" height="22px" viewBox="0 0 20 22" version="1.1" xmlns="http://www.w3.org/2000/svg" xmlns:xlink="http://www.w3.org/1999/xlink">
    <!-- Generator: Sketch 3.6.1 (26313) - http://www.bohemiancoding.com/sketch -->
    <title>icon-tutorials</title>
    <desc>Created with Sketch.</desc>
    <defs></defs>
    <g id="Page-1" stroke="none" stroke-width="1" fill="none" fill-rule="evenodd">
        <path d="M4.03683019,8.92822642 C3.99879245,8.60845283 3.88535849,8.31154717 3.71433962,8.05607547 L19.0344906,2.94090566 L18.2303396,0.532150943 C18.113434,0.182113208 17.7347925,-0.00679245283 17.3849811,0.109962264 L0.72,5.67411321 C0.370188679,5.79086792 0.18090566,6.16943396 0.297811321,6.5194717 L0.692150943,7.70037736 C0.298490566,8.06588679 0.0515471698,8.58732075 0.0515471698,9.16566038 C0.0515471698,9.91464151 0.465584906,10.5683774 1.07660377,10.9110943 L1.07660377,20.346566 C1.07660377,20.7156981 1.376,21.014717 1.74483019,21.014717 L19.3141132,21.014717 C19.6827925,21.014717 19.9821887,20.7156226 19.9821887,20.346566 L19.9821887,8.92822642 L4.03683019,8.92822642 L4.03683019,8.92822642 Z M13.801434,2.09237736 L15.8297358,1.41516981 L15.3416604,3.388 L13.3133585,4.06520755 L13.801434,2.09237736 L13.801434,2.09237736 Z M8.79018868,3.76550943 L10.8186415,3.08830189 L10.330566,5.0610566 L8.30226415,5.73833962 L8.79018868,3.76550943 L8.79018868,3.76550943 Z M2.05139623,10.1846038 C1.48973585,10.1846038 1.03267925,9.72754717 1.03267925,9.16573585 C1.03267925,8.60392453 1.48973585,8.14686792 2.05139623,8.14686792 C2.61320755,8.14686792 3.07026415,8.60392453 3.07026415,9.16573585 C3.07026415,9.72754717 2.61320755,10.1846038 2.05139623,10.1846038 L2.05139623,10.1846038 Z M3.77916981,5.43864151 L5.80762264,4.76143396 L5.31954717,6.73426415 L3.29109434,7.41154717 L3.77916981,5.43864151 L3.77916981,5.43864151 Z M5.77177358,11.1843019 L3.63335849,11.1843019 L4.7210566,9.46762264 L6.8594717,9.46762264 L5.77177358,11.1843019 L5.77177358,11.1843019 Z M10.0040755,9.46762264 L12.1424906,9.46762264 L11.0547925,11.1843019 L8.91637736,11.1843019 L10.0040755,9.46762264 L10.0040755,9.46762264 Z M9.47916981,17.7639245 L9.47916981,13.2356226 L13.085434,15.4997736 L9.47916981,17.7639245 L9.47916981,17.7639245 Z M16.3378113,11.1843019 L14.1993962,11.1843019 L15.2870943,9.46762264 L17.4255094,9.46762264 L16.3378113,11.1843019 L16.3378113,11.1843019 Z" id="icon-tutorials" fill="#292F37"></path>
    </g>
</svg>