<?xml version="1.0" encoding="UTF-8" standalone="no"?>
<svg width="33px" height="33px" viewBox="0 0 33 33" version="1.1" xmlns="http://www.w3.org/2000/svg" xmlns:xlink="http://www.w3.org/1999/xlink">
    <!-- Generator: Sketch 3.6.1 (26313) - http://www.bohemiancoding.com/sketch -->
    <title>templates</title>
    <desc>Created with Sketch.</desc>
    <defs></defs>
    <g id="Block" stroke="none" stroke-width="1" fill="none" fill-rule="evenodd">
        <g id="Rocket-Launch-Copy" transform="translate(-600.000000, -238.000000)">
            <g id="templates" transform="translate(600.000000, 238.000000)">
                <g>
                    <path d="M31.6668233,32.9825088 L1.31568551,32.9825088 C0.590268551,32.9825088 0,32.3929399 0,31.6667067 L0,7.34932155 L32.9825088,7.34932155 L32.9825088,31.6667067 C32.9825088,32.3922403 32.3928233,32.9825088 31.6668233,32.9825088 L31.6668233,32.9825088 Z" id="Shape" fill="#FFFFFF"></path>
                    <path d="M31.6668233,0 L1.31568551,0 C0.590268551,0 0,0.590618375 0,1.31638516 L0,5.91527915 L32.9825088,5.91527915 L32.9825088,1.31638516 C32.9825088,0.590618375 32.3928233,0 31.6668233,0 L31.6668233,0 Z M3.11482686,3.70474558 L2.62157597,3.70474558 C2.22499293,3.70474558 1.90455477,3.3840742 1.90455477,2.98772438 C1.90455477,2.59172438 2.22499293,2.27070318 2.62157597,2.27070318 L3.11482686,2.27070318 C3.51106007,2.27070318 3.83184806,2.59172438 3.83184806,2.98772438 C3.83184806,3.38349117 3.51117668,3.70474558 3.11482686,3.70474558 L3.11482686,3.70474558 Z M6.00495053,3.70474558 L5.51169965,3.70474558 C5.11534982,3.70474558 4.79467845,3.3840742 4.79467845,2.98772438 C4.79467845,2.59172438 5.11534982,2.27070318 5.51169965,2.27070318 L6.00495053,2.27070318 C6.40165018,2.27070318 6.72197173,2.59172438 6.72197173,2.98772438 C6.72197173,3.38349117 6.40165018,3.70474558 6.00495053,3.70474558 L6.00495053,3.70474558 Z M29.1285053,3.70474558 L8.87303534,3.70474558 C8.47668551,3.70474558 8.15601413,3.3840742 8.15601413,2.98772438 C8.15601413,2.59172438 8.47668551,2.27070318 8.87303534,2.27070318 L29.1286219,2.27070318 C29.5248551,2.27070318 29.8456431,2.59172438 29.8456431,2.98772438 C29.8456431,3.38349117 29.5248551,3.70474558 29.1285053,3.70474558 L29.1285053,3.70474558 Z" id="Shape" fill="#FFFFFF"></path>
                    <circle id="Oval-4" fill="#231E1B" cx="16" cy="20" r="9"></circle>
                    <path d="M19.9842621,20.427474 C21.1933871,18.8620573 21.9902621,17.3528115 22.5108871,15.9711011 C22.6881121,15.5000948 22.9290871,14.7551406 23.0378871,14.3062344 C23.0939871,14.0741844 23.1534871,13.7979344 23.2083121,13.4862323 C23.2214871,13.4199323 23.2304121,13.3591573 23.2418871,13.2923969 C23.2550621,13.2086011 23.2682371,13.1225031 23.2805621,13.0345636 C23.4178371,12.1095865 23.4386621,11.3084615 23.4114621,10.6740073 C23.3897871,10.1657073 23.3532371,9.73521773 23.3791621,9.70436981 C23.3936121,9.68595315 23.4084871,9.66661565 23.4229371,9.6458969 C23.5334371,9.49488023 23.5806121,9.3392594 23.5321621,9.2978219 C23.5321621,9.2978219 23.5189871,9.28723231 23.5028371,9.27388023 C23.4866871,9.26052815 23.4990121,9.12838856 23.5300371,8.97829273 C23.5614871,8.82865731 23.4658621,8.74854481 23.3158371,8.80011148 C23.1662371,8.85121773 23.0285371,8.87976356 23.0085621,8.8641094 L22.9728621,8.83510315 C22.9227121,8.79550731 22.7952121,8.88574898 22.6864121,9.03630523 C22.6757871,9.0519594 22.6655871,9.06761356 22.6562371,9.08280731 C22.6400871,9.10905106 22.2473871,9.15555315 21.7866871,9.25454273 C20.9944871,9.42535731 19.7245871,9.82868231 18.3424871,10.7794427 C16.1031621,12.2767177 14.6862121,14.3725344 14.0342621,15.5033177 C13.7852121,15.9347281 13.2344121,16.2418261 12.7656371,16.2243302 C8.99843711,16.0852844 7.38556211,18.9499969 6.80373711,20.4376031 C6.62056211,20.9058469 6.90361211,21.2792448 7.37323711,21.2700365 C15.6641371,21.101524 16.4197871,26.6744073 16.3891871,28.9184781 C16.3819621,29.4267781 16.6769121,29.676324 17.0789621,29.4138865 C20.0922121,27.4456052 19.8933121,23.7254386 19.6145121,22.018674 C19.5320621,21.5172802 19.6829371,20.8179073 19.9842621,20.427474 L19.9842621,20.427474 Z M19.0509621,17.9145198 C18.5384121,18.5254927 17.6748121,18.6861781 16.9769621,18.2501636 C16.1766871,17.7515323 15.8970371,16.6617261 16.3522121,15.8168615 C16.4074621,15.7114261 16.4724871,15.6179615 16.5443121,15.5318636 C17.0547371,14.9208906 17.9187621,14.7611261 18.6183121,15.1962198 C19.4168871,15.6930094 19.6982371,16.7837365 19.2430621,17.6295219 C19.1865371,17.7349573 19.1206621,17.8293427 19.0509621,17.9145198 L19.0509621,17.9145198 Z" id="Shape" fill="#DD4E01" transform="translate(15.149282, 19.151986) rotate(14.000000) translate(-15.149282, -19.151986) "></path>
                    <path d="M9.66922671,29.3866392 C11.1563017,28.4179225 12.0169267,26.6310454 12.4215267,25.5651808 C12.5996017,25.094635 12.3552267,24.8612037 11.9591267,25.1342308 C10.3998017,26.2093037 9.56680171,27.8948892 9.18132671,28.9133308 C9.00325171,29.3843371 9.26675171,29.6486162 9.66922671,29.3866392 L9.66922671,29.3866392 Z" id="Shape" fill="#F8E81C" transform="translate(10.802672, 27.253970) rotate(14.000000) translate(-10.802672, -27.253970) "></path>
                    <path d="M6.91727105,29.1870915 C9.18762105,27.830704 10.408646,24.9788832 10.902496,23.5373186 C11.066121,23.0603269 10.819196,22.8301186 10.416296,23.0916353 C8.03204605,24.6413978 6.86754605,27.3145769 6.40217105,28.692604 C6.24109605,29.1700561 6.50629605,29.4324936 6.91727105,29.1870915 L6.91727105,29.1870915 Z" id="Shape" fill="#F8E81C" transform="translate(8.654031, 26.131426) rotate(14.000000) translate(-8.654031, -26.131426) "></path>
                    <path d="M6.99704316,25.664045 C8.48411816,24.6962492 9.34431816,22.910293 9.74891816,21.8448888 C9.92741816,21.374343 9.68261816,21.1413721 9.28651816,21.4139388 C7.72804316,22.4880909 6.89461816,24.1727555 6.50914316,25.1911971 C6.33064316,25.661743 6.59456816,25.9260221 6.99704316,25.664045 L6.99704316,25.664045 Z" id="Shape" fill="#F8E81C" transform="translate(8.130278, 23.532633) rotate(14.000000) translate(-8.130278, -23.532633) "></path>
                </g>
            </g>
        </g>
    </g>
</svg>